<?xml version="1.0" encoding="utf-8"?>
<!-- Generator: Adobe Illustrator 25.3.1, SVG Export Plug-In . SVG Version: 6.00 Build 0)  -->
<svg version="1.1" id="Layer_1" xmlns="http://www.w3.org/2000/svg" xmlns:xlink="http://www.w3.org/1999/xlink" x="0px" y="0px"
	 width="40px" height="40px" viewBox="0 0 40 40" style="enable-background:new 0 0 40 40;" xml:space="preserve">
<style type="text/css">
	.st0{fill-rule:evenodd;clip-rule:evenodd;}
	.st1{fill:#FFFFFF;}
	.st2{stroke:#000000;stroke-width:0.25;stroke-miterlimit:10;}
	.st3{stroke:#000000;stroke-width:0.1481;stroke-miterlimit:10;}
	.st4{fill:#3F2E88;}
	.st5{fill:#3F2E88;stroke:#3F2E88;stroke-width:0.4006;stroke-miterlimit:10;}
	.st6{fill:#3F2E88;stroke:#3F2E88;stroke-width:0.3958;stroke-linecap:round;stroke-linejoin:round;stroke-miterlimit:10;}
	.st7{fill:#3F2E88;stroke:#3F2E88;stroke-width:0.2468;stroke-miterlimit:10;}
</style>
<g>
	<path class="st6" d="M19.73,3.7L1.42,11.54C1.17,11.64,1,11.89,1,12.16c0,0.27,0.17,0.52,0.42,0.62l18.32,7.84
		c0.08,0.04,0.18,0.06,0.27,0.06s0.18-0.02,0.27-0.06l18.32-7.84c0.25-0.11,0.42-0.35,0.42-0.62c0-0.27-0.16-0.51-0.41-0.62
		L20.26,3.7C20.09,3.63,19.9,3.63,19.73,3.7L19.73,3.7z M20,5.06l16.6,7.1L20,19.26l-16.6-7.1L20,5.06z M33.63,17.47
		c-0.16,0.06-0.3,0.19-0.37,0.37c-0.15,0.34,0.02,0.74,0.36,0.89L36.6,20L20,27.11L3.41,20l2.98-1.27c0.34-0.15,0.51-0.55,0.36-0.89
		c-0.15-0.34-0.55-0.51-0.89-0.36l-4.43,1.89C1.17,19.49,1.01,19.73,1.01,20c0,0.27,0.16,0.51,0.41,0.62l18.32,7.84
		c0.08,0.04,0.18,0.06,0.27,0.06s0.18-0.02,0.26-0.06l18.32-7.84C38.84,20.51,39,20.27,39,20c-0.01-0.27-0.17-0.52-0.42-0.62
		l-4.44-1.9C33.98,17.41,33.79,17.41,33.63,17.47L33.63,17.47z M6.37,25.31c-0.16-0.06-0.35-0.07-0.52,0.01l-4.43,1.89
		c-0.25,0.11-0.41,0.36-0.41,0.63c0,0.27,0.16,0.51,0.41,0.62l18.32,7.84c0.08,0.04,0.18,0.05,0.27,0.05c0.09,0,0.18-0.02,0.26-0.05
		l18.32-7.84c0.25-0.11,0.41-0.35,0.41-0.62c0-0.27-0.17-0.52-0.42-0.63l-4.42-1.89c-0.34-0.15-0.74,0.02-0.89,0.36
		c-0.15,0.34,0.02,0.74,0.36,0.89l2.97,1.27L20,34.94l-16.6-7.1l2.98-1.27c0.34-0.15,0.51-0.54,0.36-0.89
		C6.67,25.51,6.53,25.38,6.37,25.31L6.37,25.31z"/>
</g>
</svg>
