<?xml version="1.0" encoding="utf-8"?>
<!-- Generator: Adobe Illustrator 25.3.1, SVG Export Plug-In . SVG Version: 6.00 Build 0)  -->
<svg version="1.1" id="Layer_1" xmlns="http://www.w3.org/2000/svg" xmlns:xlink="http://www.w3.org/1999/xlink" x="0px" y="0px"
	 width="80px" height="80px" viewBox="0 0 80 80" style="enable-background:new 0 0 80 80;" xml:space="preserve">
<style type="text/css">
	.st0{fill-rule:evenodd;clip-rule:evenodd;}
	.st1{fill:#FFFFFF;}
	.st2{stroke:#000000;stroke-width:0.25;stroke-miterlimit:10;}
	.st3{stroke:#000000;stroke-width:0.1481;stroke-miterlimit:10;}
	.st4{fill:#3F2E88;}
	.st5{fill:#3F2E88;stroke:#3F2E88;stroke-width:0.4006;stroke-miterlimit:10;}
	.st6{fill:#3F2E88;stroke:#3F2E88;stroke-width:0.3958;stroke-linecap:round;stroke-linejoin:round;stroke-miterlimit:10;}
	.st7{fill:#3F2E88;stroke:#3F2E88;stroke-width:0.2468;stroke-miterlimit:10;}
</style>
<g>
	<circle cx="40" cy="40" r="39"/>
	<g>
		<g>
			<path class="st1" d="M52.11,25.3c-1.48,0-2.68,1.2-2.68,2.68c0,1.48,1.2,2.68,2.68,2.68c1.48,0,2.68-1.2,2.68-2.68
				C54.79,26.5,53.59,25.3,52.11,25.3z"/>
			<path class="st1" d="M40.19,28.74c-6.21,0-11.26,5.05-11.26,11.26c0,6.21,5.05,11.26,11.26,11.26c6.21,0,11.26-5.05,11.26-11.26
				C51.45,33.79,46.4,28.74,40.19,28.74z M40.19,47.21c-3.98,0-7.21-3.24-7.21-7.21s3.24-7.21,7.21-7.21c3.98,0,7.21,3.24,7.21,7.21
				S44.17,47.21,40.19,47.21z"/>
			<path class="st1" d="M49.13,62.86H30.87c-7.57,0-13.74-6.16-13.74-13.74V30.87c0-7.57,6.16-13.74,13.74-13.74h18.26
				c7.57,0,13.74,6.16,13.74,13.74v18.26C62.86,56.7,56.7,62.86,49.13,62.86z M30.87,21.44c-5.2,0-9.43,4.23-9.43,9.43v18.26
				c0,5.2,4.23,9.43,9.43,9.43h18.26c5.2,0,9.43-4.23,9.43-9.43V30.87c0-5.2-4.23-9.43-9.43-9.43H30.87z"/>
		</g>
	</g>
</g>
</svg>
