<?xml version="1.0" encoding="utf-8"?>
<!-- Generator: Adobe Illustrator 25.3.1, SVG Export Plug-In . SVG Version: 6.00 Build 0)  -->
<svg version="1.1" id="Layer_1" xmlns="http://www.w3.org/2000/svg" xmlns:xlink="http://www.w3.org/1999/xlink" x="0px" y="0px"
	 width="40px" height="40px" viewBox="0 0 40 40" style="enable-background:new 0 0 40 40;" xml:space="preserve">
<style type="text/css">
	.st0{fill-rule:evenodd;clip-rule:evenodd;}
	.st1{fill:#FFFFFF;}
	.st2{stroke:#000000;stroke-width:0.25;stroke-miterlimit:10;}
	.st3{stroke:#000000;stroke-width:0.1481;stroke-miterlimit:10;}
	.st4{fill:#3F2E88;}
	.st5{fill:#3F2E88;stroke:#3F2E88;stroke-width:0.4006;stroke-miterlimit:10;}
	.st6{fill:#3F2E88;stroke:#3F2E88;stroke-width:0.3958;stroke-linecap:round;stroke-linejoin:round;stroke-miterlimit:10;}
	.st7{fill:#3F2E88;stroke:#3F2E88;stroke-width:0.2468;stroke-miterlimit:10;}
</style>
<g>
	<path class="st5" d="M23.76,11.54c0-1-0.4-1.95-1.1-2.66c-0.7-0.7-1.66-1.1-2.66-1.1s-1.95,0.4-2.66,1.1
		c-0.7,0.7-1.1,1.66-1.1,2.66c0,1,0.4,1.95,1.1,2.66c0.7,0.7,1.66,1.1,2.66,1.1c1,0,1.95-0.4,2.65-1.1
		C23.36,13.49,23.75,12.53,23.76,11.54L23.76,11.54z M17.3,11.54L17.3,11.54c0-0.72,0.29-1.4,0.79-1.91
		c0.51-0.51,1.2-0.79,1.91-0.79c0.72,0,1.4,0.29,1.91,0.79c0.51,0.51,0.79,1.2,0.79,1.91c0,0.72-0.29,1.4-0.79,1.91
		c-0.51,0.51-1.19,0.79-1.91,0.79c-0.72,0-1.41-0.29-1.91-0.79C17.58,12.94,17.3,12.26,17.3,11.54L17.3,11.54z"/>
	<path class="st5" d="M39.19,38.22c-3.43-7.1-10.48-11.78-18.15-12.16c2.21-3.12,7.04-9.94,7.1-10.03l0.04-0.06
		c1.27-1.96,1.79-4.31,1.47-6.63c-0.33-2.31-1.48-4.43-3.24-5.97C24.64,1.85,22.38,1,20.04,1c-2.34,0-4.6,0.84-6.36,2.37
		c-1.76,1.53-2.92,3.65-3.25,5.96c-0.33,2.31,0.19,4.67,1.46,6.63l0.05,0.09c0.05,0.08,5.1,7.21,7.09,10.01
		c-7.79,0.37-14.87,5.06-18.22,12.16c-0.12,0.26-0.01,0.58,0.25,0.7c0.26,0.12,0.58,0.01,0.7-0.25c1.04-2.19,2.46-4.18,4.21-5.87
		c0.69,0.36,2.82,1.3,7.31,1.81c-0.6,1.18-1.12,2.41-1.56,3.66c-0.08,0.27,0.07,0.56,0.33,0.65c0.27,0.09,0.56-0.04,0.66-0.3
		c0.47-1.34,1.04-2.64,1.7-3.89c1.6,0.14,3.46,0.24,5.61,0.24c2.13,0,3.97-0.09,5.55-0.23c0.66,1.25,1.22,2.55,1.69,3.88
		c0.04,0.14,0.14,0.25,0.26,0.32c0.13,0.07,0.28,0.08,0.41,0.03c0.14-0.05,0.25-0.15,0.31-0.28c0.06-0.13,0.06-0.28,0.01-0.41
		c-0.44-1.25-0.96-2.47-1.56-3.65c4.44-0.5,6.57-1.42,7.28-1.8c1.75,1.69,3.18,3.67,4.24,5.85c0.13,0.25,0.44,0.35,0.69,0.23
		C39.19,38.78,39.3,38.48,39.19,38.22L39.19,38.22z M12.79,15.4c-1.14-1.75-1.6-3.85-1.31-5.91s1.32-3.95,2.89-5.32
		s3.59-2.12,5.67-2.12s4.1,0.75,5.67,2.12c1.57,1.37,2.6,3.26,2.89,5.32c0.29,2.06-0.18,4.16-1.31,5.91l-0.01,0.01l-0.03,0.04
		c-0.1,0.15-4.54,6.42-7.21,10.19c-2.68-3.78-7.11-10.04-7.2-10.17L12.79,15.4z M6.82,32.04c3.31-2.87,7.46-4.59,11.83-4.9
		c-1.9,1.93-3.52,4.11-4.82,6.47C9.85,33.2,7.71,32.44,6.82,32.04L6.82,32.04z M20.03,33.91c-1.91,0-3.59-0.07-5.05-0.19
		c1.98-3.44,4.17-5.63,5.02-6.42c0.85,0.79,3.04,2.99,5.02,6.43C23.58,33.85,21.93,33.91,20.03,33.91L20.03,33.91z M26.18,33.62
		L26.18,33.62c-1.3-2.37-2.93-4.55-4.83-6.48c4.37,0.3,8.52,2.07,11.81,4.92C32.26,32.46,30.13,33.21,26.18,33.62L26.18,33.62z"/>
</g>
</svg>
