<?xml version="1.0" encoding="utf-8"?>
<!-- Generator: Adobe Illustrator 25.3.1, SVG Export Plug-In . SVG Version: 6.00 Build 0)  -->
<svg version="1.1" id="Layer_1" xmlns="http://www.w3.org/2000/svg" xmlns:xlink="http://www.w3.org/1999/xlink" x="0px" y="0px"
	 width="80px" height="80px" viewBox="0 0 80 80" style="enable-background:new 0 0 80 80;" xml:space="preserve">
<style type="text/css">
	.st0{fill-rule:evenodd;clip-rule:evenodd;}
	.st1{fill:#FFFFFF;}
	.st2{stroke:#000000;stroke-width:0.25;stroke-miterlimit:10;}
	.st3{stroke:#000000;stroke-width:0.1481;stroke-miterlimit:10;}
	.st4{fill:#3F2E88;}
	.st5{fill:#3F2E88;stroke:#3F2E88;stroke-width:0.4006;stroke-miterlimit:10;}
	.st6{fill:#3F2E88;stroke:#3F2E88;stroke-width:0.3958;stroke-linecap:round;stroke-linejoin:round;stroke-miterlimit:10;}
	.st7{fill:#3F2E88;stroke:#3F2E88;stroke-width:0.2468;stroke-miterlimit:10;}
</style>
<ellipse cx="40" cy="40" rx="39" ry="39.18"/>
<path class="st1" d="M37.19,45.5c-1.53,1.63-2.97,3.16-4.41,4.69c-3.07,3.29-6.13,6.59-9.23,9.85c-0.27,0.29-0.77,0.46-1.18,0.5
	c-0.78,0.08-1.57,0.02-2.36,0.02c-0.03-0.06-0.06-0.12-0.09-0.19c0.62-0.68,1.24-1.37,1.87-2.04c4.47-4.77,8.94-9.53,13.42-14.29
	c0.39-0.41,0.41-0.69,0.06-1.16c-5-6.66-9.98-13.33-14.96-20c-0.14-0.19-0.27-0.39-0.5-0.71c0.35-0.03,0.57-0.06,0.79-0.06
	c3.39,0,6.78,0.01,10.17-0.01c0.58,0,0.93,0.2,1.26,0.65c3.24,4.35,6.49,8.68,9.74,13.02c0.14,0.19,0.3,0.37,0.52,0.64
	c0.51-0.54,0.98-1.02,1.43-1.5c3.8-4.07,7.61-8.13,11.39-12.21c0.39-0.42,0.79-0.64,1.38-0.6c0.76,0.05,1.53,0.01,2.29,0.01
	c0.03,0.07,0.05,0.13,0.08,0.2c-0.66,0.72-1.32,1.44-1.99,2.16c-4.21,4.51-8.42,9.03-12.65,13.52c-0.45,0.47-0.27,0.75,0.03,1.16
	c5.17,6.89,10.33,13.79,15.49,20.69c0.13,0.17,0.24,0.35,0.45,0.65c-0.33,0.04-0.55,0.08-0.77,0.08c-3.41,0-6.83-0.01-10.24,0.01
	c-0.53,0-0.84-0.2-1.14-0.6c-3.44-4.62-6.89-9.23-10.34-13.84C37.56,45.95,37.41,45.78,37.19,45.5z M55.32,57.92
	c-0.25-0.36-0.42-0.59-0.59-0.82c-2.89-3.85-5.78-7.7-8.67-11.55C40.98,38.77,35.9,32,30.83,25.21c-0.29-0.38-0.58-0.58-1.08-0.57
	c-1.4,0.03-2.81,0.01-4.21,0.02c-0.19,0-0.39,0.05-0.69,0.09c0.23,0.31,0.36,0.5,0.51,0.69c3.67,4.9,7.34,9.8,11.01,14.7
	c4.35,5.81,8.71,11.62,13.08,17.41c0.18,0.24,0.59,0.44,0.89,0.45c1.45,0.05,2.9,0.02,4.36,0.02
	C54.85,58.01,55.01,57.97,55.32,57.92z"/>
</svg>
