<?xml version="1.0" encoding="utf-8"?>
<!-- Generator: Adobe Illustrator 25.3.1, SVG Export Plug-In . SVG Version: 6.00 Build 0)  -->
<svg version="1.1" id="Layer_1" xmlns="http://www.w3.org/2000/svg" xmlns:xlink="http://www.w3.org/1999/xlink" x="0px" y="0px"
	 width="40px" height="40px" viewBox="0 0 40 40" style="enable-background:new 0 0 40 40;" xml:space="preserve">
<style type="text/css">
	.st0{fill-rule:evenodd;clip-rule:evenodd;}
	.st1{fill:#FFFFFF;}
	.st2{stroke:#000000;stroke-width:0.25;stroke-miterlimit:10;}
	.st3{stroke:#000000;stroke-width:0.1481;stroke-miterlimit:10;}
	.st4{fill:#3F2E88;}
	.st5{fill:#3F2E88;stroke:#3F2E88;stroke-width:0.4006;stroke-miterlimit:10;}
	.st6{fill:#3F2E88;stroke:#3F2E88;stroke-width:0.3958;stroke-linecap:round;stroke-linejoin:round;stroke-miterlimit:10;}
	.st7{fill:#3F2E88;stroke:#3F2E88;stroke-width:0.2468;stroke-miterlimit:10;}
</style>
<g>
	<path class="st4" d="M8.96,0.5c-0.49,0-0.89,0.4-0.89,0.89v2.12H5.52c-2.45,0-4.45,2-4.45,4.45v27.09c0,2.45,2,4.45,4.45,4.45
		h28.95c2.45,0,4.45-2,4.45-4.45V7.96c0-2.45-2-4.45-4.45-4.45h-2.54V1.39c0-0.49-0.4-0.89-0.89-0.89c-0.49,0-0.89,0.4-0.89,0.89
		v2.12H9.85V1.39C9.85,0.9,9.45,0.5,8.96,0.5L8.96,0.5z M34.48,37.72H5.52c-1.47,0-2.67-1.2-2.67-2.67V14.32h34.29v20.73
		C37.15,36.52,35.95,37.72,34.48,37.72L34.48,37.72z M30.15,5.29V8.3c0,0.49,0.4,0.89,0.89,0.89c0.49,0,0.89-0.4,0.89-0.89V5.29
		h2.54c1.47,0,2.67,1.2,2.67,2.67v4.58H2.85V7.96c0-1.47,1.2-2.67,2.67-2.67h2.54V8.3c0,0.49,0.4,0.89,0.89,0.89
		c0.49,0,0.89-0.4,0.89-0.89V5.29L30.15,5.29z"/>
	<path class="st4" d="M26.6,23.25l-4.01-0.58l-1.79-3.64c-0.15-0.3-0.46-0.5-0.8-0.5s-0.65,0.19-0.8,0.5l-1.79,3.64l-4.01,0.58
		c-0.34,0.05-0.61,0.28-0.72,0.61c-0.1,0.32-0.02,0.68,0.23,0.91l2.9,2.83l-0.69,4c-0.06,0.33,0.08,0.67,0.35,0.87
		c0.27,0.2,0.64,0.23,0.94,0.07L20,30.64l3.59,1.89c0.13,0.07,0.27,0.1,0.41,0.1c0.18,0,0.37-0.06,0.52-0.17
		c0.27-0.2,0.41-0.54,0.35-0.87l-0.69-4l2.9-2.83c0.24-0.24,0.33-0.59,0.23-0.91C27.22,23.53,26.94,23.3,26.6,23.25L26.6,23.25z
		 M22.62,26.65c-0.21,0.2-0.31,0.5-0.26,0.79l0.46,2.68l-2.41-1.27c-0.13-0.07-0.27-0.1-0.41-0.1c-0.14,0-0.28,0.03-0.41,0.1
		l-2.41,1.27l0.46-2.68c0.05-0.29-0.05-0.58-0.26-0.79l-1.95-1.9l2.69-0.39c0.29-0.04,0.54-0.22,0.67-0.49l1.2-2.44l1.2,2.44
		c0.13,0.26,0.38,0.44,0.67,0.49l2.69,0.39L22.62,26.65z"/>
</g>
</svg>
