<?xml version="1.0" encoding="utf-8"?>
<!-- Generator: Adobe Illustrator 25.3.1, SVG Export Plug-In . SVG Version: 6.00 Build 0)  -->
<svg version="1.1" id="Layer_1" xmlns="http://www.w3.org/2000/svg" xmlns:xlink="http://www.w3.org/1999/xlink" x="0px" y="0px"
	 width="80px" height="80px" viewBox="0 0 80 80" style="enable-background:new 0 0 80 80;" xml:space="preserve">
<style type="text/css">
	.st0{fill-rule:evenodd;clip-rule:evenodd;}
	.st1{fill:#FFFFFF;}
	.st2{stroke:#000000;stroke-width:0.25;stroke-miterlimit:10;}
	.st3{stroke:#000000;stroke-width:0.1481;stroke-miterlimit:10;}
	.st4{fill:#3F2E88;}
	.st5{fill:#3F2E88;stroke:#3F2E88;stroke-width:0.4006;stroke-miterlimit:10;}
	.st6{fill:#3F2E88;stroke:#3F2E88;stroke-width:0.3958;stroke-linecap:round;stroke-linejoin:round;stroke-miterlimit:10;}
	.st7{fill:#3F2E88;stroke:#3F2E88;stroke-width:0.2468;stroke-miterlimit:10;}
</style>
<g>
	<g>
		<path d="M79,40C79,18.46,61.54,1,40,1C18.46,1,1,18.46,1,40c0,19.47,14.26,35.6,32.91,38.53V51.27H24V40h9.9v-8.59
			c0-9.77,5.82-15.17,14.73-15.17c4.27,0,8.73,0.76,8.73,0.76v9.6h-4.92c-4.84,0-6.36,3.01-6.36,6.09V40h10.82l-1.73,11.27h-9.09
			v27.25C64.74,75.6,79,59.47,79,40z"/>
		<path class="st1" d="M55.18,51.27L56.91,40H46.09v-7.32c0-3.08,1.51-6.09,6.36-6.09h4.92V17c0,0-4.46-0.76-8.73-0.76
			c-8.91,0-14.73,5.4-14.73,15.17V40H24v11.27h9.9v27.25C35.89,78.84,37.93,79,40,79c2.07,0,4.11-0.16,6.09-0.47V51.27H55.18z"/>
	</g>
</g>
</svg>
