<?xml version="1.0" encoding="utf-8"?>
<!-- Generator: Adobe Illustrator 27.9.0, SVG Export Plug-In . SVG Version: 6.00 Build 0)  -->
<svg version="1.1" id="Layer_1" xmlns="http://www.w3.org/2000/svg" xmlns:xlink="http://www.w3.org/1999/xlink" x="0px" y="0px"
	 width="180px" height="60px" viewBox="0 0 180 60" style="enable-background:new 0 0 180 60;" xml:space="preserve">
<style type="text/css">
	.st0{font-family:'Montserrat-Bold';}
	.st1{font-size:8.9307px;}
</style>
<g>
	<g>
		<g>
			<path d="M117.7,29.6c0.6,0,1.3,0,1.9,0c0.3,0,0.6-0.1,0.7-0.4c0.2-0.6,0.3-1.3,0.5-1.9c0-0.1,0.1-0.2,0.1-0.3
				c0.1,0.1,0.3,0.1,0.4,0.2c0.1,0.1,0.2,0.3,0.2,0.5c0.2,0.5,0.3,1.1,0.4,1.6c0.1,0.3,0.3,0.4,0.5,0.4c0.6,0,1.2,0,1.8-0.1
				c0.1,0,0.2,0,0.3,0c0.2,0.1,0.3,0.2,0.5,0.3c-0.1,0.1-0.2,0.3-0.3,0.4c-0.6,0.4-1.2,0.8-1.7,1.3c-0.1,0.1-0.2,0.3-0.1,0.5
				c0.2,0.7,0.5,1.5,0.7,2.2c0,0.1,0,0.2,0,0.4c-0.1,0-0.3,0-0.4-0.1c-0.4-0.3-0.7-0.6-1.1-0.9c-0.2-0.2-0.4-0.3-0.6-0.5
				c-0.2-0.2-0.4-0.2-0.7,0c-0.5,0.4-1,0.8-1.5,1.2c-0.1,0.1-0.3,0.2-0.4,0.3c0,0-0.1,0-0.1,0c0,0-0.1,0-0.1,0c0,0,0-0.2,0-0.3
				c0.3-0.7,0.6-1.5,0.8-2.2c0.1-0.2,0-0.4-0.1-0.5c-0.5-0.5-1.1-0.9-1.7-1.3c-0.1-0.1-0.3-0.2-0.4-0.4l0.5-0.3L117.7,29.6z"/>
			<path d="M67.2,29.5c0.6,0,1.3,0,1.9,0c0.5,0,0.7-0.1,0.9-0.6c0.2-0.6,0.3-1.2,0.5-1.7c0-0.1,0.2-0.3,0.3-0.4
				c0.1,0.1,0.2,0.3,0.3,0.4c0.2,0.7,0.3,1.3,0.5,2c0.1,0.3,0.2,0.4,0.5,0.4c0.6,0,1.2,0,1.7,0c0.1,0,0.2,0,0.2,0
				c0.2,0,0.6-0.1,0.6,0.2c0.1,0.3-0.3,0.3-0.4,0.4c-0.6,0.4-1.1,0.8-1.7,1.3c-0.1,0.1-0.1,0.1-0.1,0.2c0,0.1,0,0.2,0,0.2
				c0.3,0.8,0.6,1.5,0.8,2.3c0,0.1,0,0.3,0,0.4c-0.1,0-0.3,0-0.4-0.1c-0.6-0.5-1.2-1-1.8-1.5c-0.2-0.2-0.4-0.2-0.6,0
				c-0.5,0.4-1,0.9-1.6,1.3c-0.1,0.1-0.2,0.1-0.3,0.2c-0.2,0.1-0.4,0-0.3-0.3c0.1-0.2,0.2-0.5,0.3-0.7c0.2-0.6,0.4-1.1,0.5-1.7
				c0-0.1-0.1-0.3-0.2-0.4c-0.5-0.4-1-0.8-1.5-1.3C67.2,30,67.1,30,67,29.8c0,0,0-0.1-0.1-0.2c0-0.1,0-0.1,0-0.2
				C67,29.5,67.1,29.5,67.2,29.5L67.2,29.5z"/>
			<path d="M107.4,52.4c0.5,0,1.1,0,1.6,0c0.7,0,0.8-0.1,1-0.7c0.2-0.6,0.3-1.2,0.5-1.8c0-0.1,0.2-0.2,0.2-0.3
				c0.1,0.1,0.2,0.2,0.3,0.3c0.2,0.6,0.4,1.3,0.5,1.9c0.1,0.5,0.3,0.6,0.8,0.6c0.6,0,1.2-0.1,1.8-0.1c0.2,0,0.3,0.1,0.5,0.2
				c-0.1,0.1-0.2,0.3-0.3,0.4c-0.5,0.4-1.1,0.8-1.7,1.2c-0.3,0.2-0.3,0.4-0.2,0.7c0.3,0.7,0.5,0,0.8,0.7c0,0.1,0,0.3-0.1,0.5
				c-0.1-0.1-0.3-0.1-0.4-0.2c-0.6-0.5-1.1-1-1.7-1.4c-0.1-0.1-0.4-0.1-0.5,0c-0.6,0.4-1.2,0.9-1.7,1.4c-0.1,0.1-0.2,0.1-0.4,0.1
				c0-0.1-0.1-0.3,0-0.4c0.2-0.6,0.5,0,0.7-0.6c0.2-0.3,0.2-0.6-0.2-0.9c-0.5-0.4-1.1-0.8-1.6-1.2c-0.1-0.1-0.2-0.3-0.3-0.4l0.5-0.2
				C107.4,52.3,107.4,52.4,107.4,52.4z"/>
			<path d="M92.4,4.5c0.7,0,1.3,0,2,0c0.4,0,0.6-0.1,0.7-0.5c0.1-0.6,0.3-1.3,0.4-1.9c0-0.1,0.1-0.2,0.2-0.4C95.9,1.8,96,1.9,96.1,2
				c0.2,0.6,0.4,1.2,0.5,1.8c0.2,0.6,0.4,0.8,1,0.7c0.6,0,1.2-0.1,1.7-0.1c0.1,0,0.3,0.1,0.4,0.2c-0.1,0.1-0.1,0.3-0.3,0.4
				c-0.6,0.4-1.2,0.9-1.8,1.3c-0.3,0.2-0.3,0.4-0.1,0.7c0,0.1,0.1,0.1,0.1,0.2c0.2,0.6,0.4,1.2,0.6,1.8c0,0.1,0,0.3,0,0.4
				c-0.1,0-0.3-0.1-0.4-0.1c-0.6-0.5-1.2-0.9-1.7-1.4c-0.2-0.2-0.4-0.2-0.6,0c-0.6,0.5-1.2,1-1.8,1.5c-0.1,0.1-0.3,0.1-0.4,0.1
				c0-0.2,0-0.3,0-0.5c0.3-0.7,0.5-1.4,0.8-2c0.1-0.3,0-0.5-0.2-0.7C93.5,5.8,93,5.4,92.4,5c-0.1,0-0.1-0.1-0.2-0.1
				c-0.1-0.1-0.1-0.2-0.1-0.4c0-0.1,0.2-0.1,0.3-0.2L92.4,4.5z"/>
			<path d="M92.4,54.7c0.7,0,1.3,0,2,0c0.4,0,0.6-0.1,0.7-0.5c0.1-0.7,0.3-1.3,0.5-2c0-0.1,0.1-0.2,0.2-0.4c0.1,0.1,0.2,0.2,0.3,0.3
				c0.2,0.6,0.4,1.2,0.6,1.8c0.2,0.6,0.3,0.8,1,0.7c0.6,0,1.2-0.1,1.7-0.1c0.1,0,0.3,0.1,0.4,0.2c-0.1,0.1-0.1,0.3-0.3,0.4
				c-0.6,0.4-1.2-0.4-1.8,0c-0.3,0.2-0.3,0.4-0.1,0.7c0,0.1,0.1,0.1,0.1,0.2c0.2,0.6,0.4,1.2,0.6,1.7c0,0.1,0,0.3,0,0.5
				c-0.2-0.1-0.3-0.1-0.5-0.2c-0.6-0.4-1.1-0.9-1.7-1.3c-0.2-0.2-0.4-0.2-0.6,0c-0.6,0.5-1.1,0.9-1.7,1.4c-0.1,0.1-0.3,0.1-0.4,0.2
				c0-0.2,0-0.4,0-0.5c0.2-0.7,0.5-1.3,0.8-2c0.1-0.3,0-0.5-0.2-0.7c-0.5-0.4-1.1,0.5-1.6,0.1c-0.1,0-0.1-0.1-0.2-0.1
				c-0.1-0.1-0.2-0.2-0.2-0.4l0.4-0.2L92.4,54.7z"/>
			<path d="M77.7,52.4c0.6,0,1.2,0,1.8,0c0.5,0,0.6-0.1,0.7-0.6c0.2-0.7,0.3-1.4,0.4-2c0-0.1,0.1-0.2,0.2-0.3
				c0.1,0.1,0.2,0.2,0.3,0.3c0.2,0.6,0.4,1.2,0.5,1.9c0.2,0.7,0.3,0.8,1,0.8c0.6,0,1.1-0.1,1.7-0.1c0.2,0,0.3,0.1,0.4,0.2
				c-0.1,0.1-0.2,0.3-0.3,0.4c-0.5,0.4-1.1,0.8-1.7,1.2c-0.3,0.2-0.4,0.4-0.1,0.8c0.1,0.1,0.1,0.2,0.1,0.3c0.2,0.5,0.4-0.2,0.6,0.4
				c0,0.1,0,0.3,0,0.5c-0.2,0-0.3-0.1-0.5-0.1c-0.6-0.4-1.1-0.9-1.6-1.3c-0.2-0.2-0.4-0.2-0.7,0c-0.6,0.5-1.2,1-1.8,1.4
				C78.7,56,78.6,56,78.5,56c0-0.1-0.1-0.3,0-0.4c0.2-0.6,0.5,0,0.7-0.6c0.2-0.5,0.1-0.8-0.3-1.1c-0.5-0.4-1.1-0.7-1.6-1.1
				c-0.1-0.1-0.2-0.2-0.2-0.3c0-0.1,0.2-0.1,0.3-0.2C77.5,52.3,77.6,52.4,77.7,52.4L77.7,52.4z"/>
			<path d="M121.2,47c-0.2-0.1-0.4-0.2-0.6-0.3c-0.5-0.4-1-0.8-1.5-1.2c-0.3-0.2-0.5-0.2-0.7,0c-0.5,0.5-1.1,0.9-1.7,1.3
				c-0.1,0.1-0.3,0.1-0.4,0.1c0-0.1,0-0.3,0-0.4c0.2-0.6,0.4-1.1,0.6-1.7c0.3-0.7,0.2-0.9-0.4-1.3c-0.4-0.3-0.7-0.5-1.1-0.8
				c-0.1,0-0.1-0.1-0.2-0.1c-0.1-0.2-0.3-0.4-0.4-0.6c0.2,0,0.4,0,0.6,0c0.6,0,1.3,0.1,1.9,0c0.2,0,0.4-0.2,0.4-0.4
				c0.2-0.6,0.3-1.3,0.5-1.9c0-0.1,0-0.2,0-0.2c0.1-0.1,0.1-0.2,0.2-0.3c0.1,0.1,0.2,0.2,0.3,0.3c0.2,0.6,0.3,1.1,0.5,1.7
				c0.1,0.3,0.2,0.5,0.4,0.7c0.1,0.1,0.1,0.1,0.2,0.2c0.1,0,0.2,0.1,0.2,0.1c0.7,0,1.3-0.1,2-0.2c0.1,0,0.2,0,0.3,0
				c0,0.1,0,0.2-0.1,0.3c-0.1,0.2-0.3,0.3-0.4,0.4c-0.5,0.4-1,0.7-1.5,1.1c-0.1,0.1-0.1,0.4-0.1,0.6c0.2,0.6,0.4,1.2,0.6,1.8
				c0.1,0.2,0.1,0.4,0.2,0.6L121.2,47z"/>
			<path d="M116.3,17.7h1.1c0.3,0,0.5-0.1,0.6-0.4c0.1-0.7,0.3-1.4,0.5-2.1c0-0.1,0.1-0.2,0.2-0.3c0.1,0.1,0.3,0.2,0.3,0.3
				c0.2,0.6,0.4,1.2,0.5,1.7c0.2,0.8,0.3,0.8,1.1,0.8c0.5,0,1.1,0,1.6,0c0.2,0,0.3,0.1,0.4,0.2c-0.1,0.1-0.2,0.3-0.3,0.4
				c-0.6,0.4-1.1,0.8-1.7,1.2c-0.2,0.2-0.3,0.4-0.2,0.7c0.3,0.7,0.5,1.4,0.7,2c0,0.1,0,0.3,0,0.4c-0.2,0-0.3-0.1-0.5-0.2
				c-0.5-0.4-1-0.9-1.5-1.3c-0.3-0.3-0.5-0.3-0.8,0c-0.5,0.5-1.1,0.9-1.7,1.4c-0.1,0.1-0.2,0.1-0.4,0.1c0-0.1,0-0.3,0-0.4
				c0.2-0.6,0.5-1.2,0.7-1.8c0.2-0.6,0.1-0.9-0.4-1.2c-0.5-0.3-1-0.7-1.5-1c-0.1-0.1-0.2-0.2-0.2-0.3c0.1-0.1,0.2-0.1,0.4-0.2
				C115.6,17.7,116,17.7,116.3,17.7L116.3,17.7z"/>
			<path d="M105,9c0.6,0,1.2,0,1.8,0c0.5,0,0.8-0.1,0.9-0.6c0.2-0.6,0.3-1.2,0.5-1.7c0-0.1,0.2-0.2,0.3-0.4c0.1,0.1,0.2,0.2,0.2,0.4
				c0.2,0.6,0.3,1.3,0.4,1.9c0.1,0.4,0.3,0.5,0.7,0.5c0.7,0,1.4-0.1,2.1-0.1c0.1,0,0.2,0.1,0.3,0.1c-0.1,0.1-0.1,0.3-0.2,0.3
				c-0.4,0.3-0.8,0.6-1.3,0.9c-0.9,0.6-0.9,0.7-0.5,1.7c0.2,0.5,0.4,1,0.6,1.5c0,0.1,0,0.2-0.1,0.4c-0.1,0-0.3,0-0.4-0.1
				c-0.6-0.5-1.2-0.9-1.8-1.4c-0.2-0.2-0.4-0.2-0.6,0c-0.5,0.4-1.1,0.9-1.6,1.3c-0.1,0.1-0.3,0.1-0.5,0.2c0-0.2-0.1-0.3,0-0.5
				c0.2-0.7,0.5-1.4,0.7-2.1c0-0.1,0-0.4-0.1-0.5c-0.6-0.5-1.2-0.9-1.8-1.4c-0.1-0.1-0.2-0.2-0.3-0.4l0.4-0.2L105,9z"/>
			<path d="M75.4,46.8c0,0.1-0.1,0.2-0.1,0.2c-0.1,0-0.2,0-0.3-0.1c-0.5-0.4-1.1-0.9-1.6-1.3c-0.4-0.3-0.5-0.3-0.9,0
				c-0.5,0.4-1,0.8-1.5,1.2c-0.1,0.1-0.3,0.1-0.4,0.1c0-0.2-0.1-0.3,0-0.5c0.2-0.6,0.5-1.2,0.7-1.8c0.2-0.5,0.2-0.7-0.2-1
				c-0.5-0.4-1.1-0.8-1.6-1.2c-0.1-0.1-0.2-0.3-0.2-0.4c0.2,0,0.3-0.1,0.5-0.1c0.6,0,1.3,0.1,1.9,0.2c0.4,0,0.7-0.2,0.8-0.5
				c0.2-0.6,0.3-1.2,0.4-1.8c0-0.2,0.2-0.3,0.2-0.4c0.1,0.1,0.2,0.2,0.3,0.4c0.2,0.6,0.3,1.3,0.5,1.9c0.1,0.5,0.3,0.6,0.8,0.6
				c0.6,0,1.3-0.1,1.9-0.1c0.1,0,0.3,0,0.3,0.1c0,0.1,0,0.2,0,0.3c-0.1,0.1-0.1,0.2-0.3,0.3c-0.5,0.3-0.9,0.7-1.4,1
				c-0.4,0.3-0.5,0.5-0.3,1c0.2,0.6,0.5,1.3,0.7,1.9C75.4,46.7,75.4,46.7,75.4,46.8z"/>
			<path d="M79.9,9c0.6,0,1.3,0,1.9,0c0.4,0,0.6-0.1,0.7-0.5c0.1-0.5,0.3-0.9,0.4-1.4C83,6.9,83,6.7,83.1,6.6c0-0.1,0.1-0.1,0.1-0.1
				c0.1,0,0.1-0.1,0.2-0.1c0.1,0,0.2,0.2,0.2,0.3c0,0.1,0,0.3,0,0.4c0.2,0.6,0.4,1.2,0.5,1.8c0.1,0.2,0.2,0.3,0.5,0.3
				C85.5,9,86.2,9,86.9,8.9C87,8.9,87.1,9,87.2,9c0,0.1-0.1,0.3-0.1,0.3c-0.4,0.3-0.9,0.6-1.3,0.9c-0.3,0.2-0.6,0.4-0.8,0.6
				c-0.3,0.3,0.1,0.6,0.2,0.9c0.1,0.5,0.4,1,0.5,1.5c0,0.1,0,0.3,0,0.4c-0.2,0-0.3,0-0.4-0.1c-0.5-0.4-1-0.9-1.5-1.3
				c-0.2-0.2-0.4-0.2-0.7,0c-0.5,0.4-0.9,0.8-1.4,1.1c-0.1,0-0.1,0.1-0.2,0.1c-0.2,0.1-0.3,0.1-0.5,0.1c0-0.2,0-0.3,0.1-0.4
				c0.2-0.7,0.5-1.4,0.7-2.1c0-0.1-0.1-0.4-0.2-0.4c-0.6-0.5-1.2-0.9-1.8-1.4c-0.1-0.1-0.2-0.2-0.3-0.4l0.4-0.2L79.9,9z"/>
			<path d="M70.6,17.7c0.4,0,0.8,0,1.1,0c0.3,0,0.4-0.1,0.5-0.4c0.2-0.7,0.3-1.4,0.5-2.1c0-0.1,0.2-0.3,0.2-0.4
				c0.1,0.1,0.2,0.2,0.3,0.4c0.2,0.7,0.4,1.3,0.5,2c0.1,0.4,0.3,0.6,0.7,0.6c0.6,0,1.2,0,1.8,0c0.1,0,0.2,0,0.3,0
				c0.1,0,0.2,0.1,0.2,0.2c0,0.1-0.1,0.2-0.1,0.3c-0.6,0.4-1.1,0.7-1.7,1.1c-0.4,0.3-0.5,0.5-0.3,0.9c0.1,0.3,0.2,0.6,0.3,0.9
				c0.1,0.3,0.3,0.6,0.4,1c0.1,0.2,0,0.3,0,0.5c-0.1-0.1-0.3-0.1-0.4-0.2c-0.6-0.5-1.2-1-1.8-1.4c-0.1-0.1-0.4-0.1-0.5,0
				c-0.6,0.5-1.1,1-1.7,1.4c-0.1,0.1-0.3,0.1-0.4,0.2c0-0.2-0.1-0.3-0.1-0.4c0.2-0.6,0.5-1.2,0.7-1.8c0.2-0.5,0.2-0.8-0.3-1.1
				c-0.5-0.4-1.1-0.7-1.6-1.1c-0.1-0.1-0.1-0.2-0.2-0.3c0.1-0.1,0.2-0.2,0.3-0.2C69.8,17.7,70.2,17.7,70.6,17.7L70.6,17.7z"/>
		</g>
		<g>
			<path d="M91.2,34.4c-0.6,0-1.1,0-1.7,0c-0.2,0-0.2-0.1-0.2-0.2c0-0.3,0-0.5,0-0.8c0-2,0-4,0-6.1c0-0.1,0-0.2,0-0.3
				c0-0.1,0.1-0.2,0.2-0.2c1.1,0,2.2,0,3.2,0c0.8,0,1.6,0.2,2.3,0.7c0.6,0.4,1,0.9,1.2,1.5c0.3,0.6,0.3,1.3,0.3,2c0,0.1,0,0.1,0,0.2
				c-0.1,0.3-0.2,0.6-0.3,0.8c-0.3,0.7-0.8,1.2-1.4,1.6c-0.2,0.1-0.5,0.2-0.7,0.3c-0.8,0.3-1.6,0.2-2.3,0.3
				C91.6,34.4,91.4,34.4,91.2,34.4L91.2,34.4z M91.3,30.6L91.3,30.6c0,0.6,0,1.2,0,1.8c0,0.1,0.1,0.2,0.2,0.2c0.5,0,0.9,0,1.4,0
				c0.1,0,0.1,0,0.2,0c0.7-0.2,1.2-0.6,1.5-1.4c0.1-0.5,0.1-1-0.1-1.5c-0.3-0.7-1-1.2-1.8-1.2c-0.4,0-0.7,0-1.1,0
				c-0.2,0-0.3,0-0.3,0.3C91.3,29.4,91.3,30,91.3,30.6L91.3,30.6z"/>
			<path d="M106.7,26.9h1.7c0,0,0,0,0.1,0c0.6,0.1,1.3,0.2,1.8,0.6c0.3,0.2,0.5,0.5,0.6,0.9c0.2,0.5,0.3,1.1,0.2,1.6
				c-0.1,0.3-0.2,0.6-0.4,0.9c-0.2,0.3-0.5,0.5-0.9,0.7c-0.1,0-0.2,0.1-0.1,0.2c0.3,0.5,0.5,0.9,0.8,1.4c0.2,0.3,0.4,0.6,0.6,1
				c0,0,0,0.1,0.1,0.1c0,0.1,0,0.2-0.1,0.2c-0.6,0-1.2,0-1.8,0c-0.2,0-0.3,0-0.4-0.2c-0.3-0.7-0.6-1.3-1-2c0,0,0-0.1-0.1-0.1
				c-0.1-0.2-0.2-0.2-0.4-0.2c-0.2,0-0.4,0-0.6,0c-0.2,0-0.2,0-0.2,0.2c0,0.2,0,0.4,0,0.7c0,0.5,0,0.9,0,1.4c0,0.2-0.1,0.3-0.3,0.3
				c-0.5,0-0.9,0-1.4,0c-0.2,0-0.3-0.1-0.3-0.3c0-0.1,0-0.2,0-0.2c0-2.1,0-4.2,0-6.3c0-0.1,0-0.3,0-0.4c0-0.2,0-0.2,0.2-0.2
				c0.4,0,0.8,0,1.1,0C106.3,26.9,106.5,26.9,106.7,26.9L106.7,26.9z M107.6,28.5L107.6,28.5l-0.7,0c-0.2,0-0.3,0-0.3,0.3
				c0,0.4,0,0.8,0,1.2c0,0.2,0,0.2,0.2,0.2c0.1,0,0.2,0,0.3,0c0.4,0,0.8,0,1.2,0c0.3,0,0.5-0.2,0.6-0.5c0.1-0.3,0.1-0.6-0.2-0.9
				c-0.2-0.2-0.4-0.3-0.7-0.3C108,28.5,107.8,28.5,107.6,28.5z"/>
			<path d="M86.2,30.2c0.6,0,1.1,0,1.7,0c0.2,0,0.2,0.1,0.2,0.2c0,0.7,0,1.5,0,2.2c0,0.4-0.1,0.7-0.4,0.9c-0.5,0.4-1,0.6-1.5,0.8
				c-0.6,0.2-1.3,0.2-1.9,0.2c-1.1-0.1-2-0.6-2.7-1.5c-0.5-0.6-0.8-1.4-0.8-2.2c0-0.2,0-0.5,0-0.7c0-0.2,0-0.3,0.1-0.5
				c0.1-0.4,0.3-0.9,0.6-1.2c0.4-0.5,0.8-0.9,1.4-1.2c0.6-0.3,1.3-0.5,2-0.5c1.1,0,2.1,0.4,2.8,1.3c0.1,0.1,0.1,0.2,0.2,0.2
				c0.1,0.1,0.1,0.3-0.1,0.4c-0.3,0.2-0.6,0.3-0.9,0.5c-0.1,0.1-0.3,0.2-0.4,0.2c-0.1,0.1-0.2,0-0.3-0.1c-0.2-0.3-0.5-0.5-0.8-0.6
				c-0.5-0.2-0.9-0.2-1.4,0c-0.3,0.1-0.5,0.2-0.7,0.4c-0.4,0.4-0.6,0.8-0.7,1.4c0,0.5,0,1.1,0.4,1.5c0.3,0.4,0.7,0.7,1.3,0.8
				c0.1,0,0.2,0,0.3,0.1c0.1,0,0.1,0,0.2,0c0.4-0.1,0.9-0.1,1.2-0.4c0.1,0,0.1-0.1,0.1-0.2c0-0.1,0-0.3,0-0.4
				c-0.1-0.2-0.2-0.1-0.4-0.1c-0.4,0-0.8,0-1.1,0c-0.1,0-0.2-0.1-0.2-0.2c0-0.4,0-0.8,0-1.2c0-0.1,0-0.2,0.2-0.2
				C85.2,30.2,85.7,30.2,86.2,30.2z"/>
			<path d="M99.4,26.8c0.6,0,1.3,0,1.9,0c0.1,0,0.2,0,0.3,0c0.8,0.2,1.4,0.5,1.8,1.3c0.2,0.3,0.3,0.7,0.3,1.1c0,0.2,0,0.5-0.1,0.7
				c-0.2,0.7-0.6,1.2-1.2,1.5c-0.5,0.3-1,0.4-1.6,0.3c-0.5,0-1,0-1.5,0c-0.1,0-0.2,0-0.2,0.2c0,0.7,0,1.4,0,2.1
				c0,0.2-0.1,0.3-0.3,0.3c-0.4,0-0.9,0-1.3,0c-0.3,0-0.4-0.1-0.4-0.4c0-0.2,0-0.3,0-0.5c0-2,0-4.1,0-6.1c0-0.1,0-0.2,0-0.3
				c0-0.2,0-0.2,0.2-0.2c0.1,0,0.2,0,0.3,0C98.4,26.9,98.9,26.9,99.4,26.8L99.4,26.8z M100.4,30.2L100.4,30.2l0.3,0
				c0.1,0,0.2,0,0.3,0c0.3,0,0.6-0.3,0.7-0.5c0.2-0.6-0.2-1.2-0.8-1.2c-0.5,0-0.9,0-1.4,0c-0.2,0-0.2,0-0.2,0.2c0,0.4,0,0.8,0,1.2
				c0,0.2,0,0.2,0.2,0.2C99.9,30.2,100.1,30.2,100.4,30.2z"/>
		</g>
	</g>
	<g>
		<g>
			<path d="M149.2,4.1c0,0-4.7,7.7,1.8,16.9l-6.1,8.8C144.8,29.8,135.3,15,149.2,4.1z"/>
			<path d="M146.1,31.8l6.1-9c0,0,5.8,10,20.7,10.6C172.9,33.3,160.9,45.5,146.1,31.8z"/>
			<path d="M152.7,18.1l11.8-17.2C164.4,0.9,142.2-3.6,152.7,18.1z"/>
			<path d="M164.9,3.9l9.6,24.1c0,0-12,3.7-20.4-8L164.9,3.9z"/>
			<path d="M165.8,1.2c0,0,17.9,6.8,11.3,25"/>
		</g>
		<g>
			<text transform="matrix(1 0 0 1 146.042 48.4419)"><tspan x="0" y="0" class="st0 st1">SOC II</tspan><tspan x="-2.2" y="8.7" class="st0 st1">TYPE II</tspan></text>
		</g>
	</g>
	<g>
		<g>
			<path d="M44.2,34c-2.2,0-4.3-0.5-6.3-1.7c-2-1.2-3.1-2.9-3.7-5.1c-0.6-2.3-0.5-4.6,0.1-6.9c0.7-2.6,2.2-4.4,4.8-5.4
				c3.5-1.4,6.9-1.4,10.3,0c2.7,1.1,4.3,3,4.9,5.9c0.6,2.7,0.5,5.3-0.5,7.9c-0.9,2.4-2.7,3.8-5.1,4.5C47.2,33.8,45.7,34,44.2,34z
				 M40.9,23.9C40.9,23.9,40.9,23.9,40.9,23.9c0,1.1,0.1,2.3,0.3,3.4c0.2,1,0.8,1.6,1.8,1.8c0.6,0.1,1.2,0.2,1.7,0.1
				c1.8-0.2,2.5-1,2.7-2.7c0.1-0.7,0.1-1.4,0.1-2c0-1.3,0-2.7-0.3-4c-0.2-0.7-0.6-1.2-1.3-1.5c-0.8-0.4-1.7-0.4-2.6-0.2
				c-1.5,0.3-2.1,1-2.2,2.5C41,22.2,41,23.1,40.9,23.9z"/>
			<path d="M28.5,14.5c1.3,0,2.6,0,3.8,0c0.1,0,0.2,0.1,0.2,0.3c0,0.1,0,0.3,0,0.4c0,1.8,0,3.6,0,5.5c0,0.3-0.1,0.5-0.5,0.5
				c-1.1,0-2.1,0-3.2,0c-0.2,0-0.4-0.1-0.5-0.2c-1-1.3-2.3-2-3.9-2.3c-0.9-0.2-1.8-0.2-2.7-0.3c-0.3,0-0.6,0.1-0.8,0.2
				c-0.2,0.1-0.5,0.4-0.5,0.6c0,0.2,0.2,0.5,0.4,0.7c0.2,0.2,0.4,0.2,0.7,0.3c2.2,0.6,4.3,1.2,6.5,1.9c1.9,0.6,3.5,1.7,4.4,3.5
				c1.4,2.7,0.2,6.1-2.5,7.5c-1.7,0.9-3.5,1.1-5.4,1c-1.8-0.2-3.5-0.6-5.1-1.6c-0.1-0.1-0.2-0.1-0.4-0.1c0,0.4,0,0.7,0,0.9
				c0,0.3-0.1,0.4-0.4,0.4c-1.2,0-2.4,0-3.5,0c-0.2,0-0.3-0.1-0.3-0.3c0-2.1,0-4.3,0-6.4c0-0.3,0.1-0.4,0.4-0.4c1.1,0,2.2,0,3.2,0
				c0.1,0,0.3,0.1,0.4,0.2c1.2,1.8,3,2.6,5.1,2.7c0.8,0.1,1.7-0.1,2.6-0.2c0.3,0,0.6-0.2,0.6-0.6c0-0.4-0.3-0.6-0.6-0.7
				c-1.2-0.4-2.4-0.8-3.6-1.1c-1.4-0.4-2.8-0.8-4.1-1.3c-1.6-0.6-3-1.6-3.7-3.2c-1.4-3,0.1-6.5,3.2-7.7c2.3-0.9,4.6-0.9,6.9-0.3
				c0.9,0.2,1.8,0.7,2.6,1.1c0.5,0.2,0.5,0.2,0.5-0.3C28.5,14.9,28.5,14.7,28.5,14.5z"/>
			<path d="M1.4,33.6c0-1.5,0-3,0-4.6c0.8,0,1.5,0,2.2,0c0.6,0,0.6,0,0.6-0.6c0-3,0-6,0-9c0-0.5,0-0.5-0.6-0.5c-0.7,0-1.4,0-2.1,0
				c0,0-0.1,0-0.1,0c0-1.5,0-3,0-4.6c0.2,0,0.3,0,0.5,0c3.8,0,7.6,0,11.5,0c0.2,0,0.4,0,0.4,0.3c0,1.4,0,2.8,0,4.3
				c0,0,0,0.1-0.1,0.1c-0.7,0-1.5,0-2.2,0c-0.6,0-0.6,0-0.6,0.6c0,3,0,5.9,0,8.9c0,0.6,0,0.6,0.6,0.6c0.6,0,1.3,0,1.9,0
				c0.3,0,0.4,0.1,0.4,0.4c0,1.3,0,2.6,0,3.9c0,0.2-0.1,0.4-0.3,0.4c-3.9,0-7.9,0-11.8,0C1.5,33.6,1.5,33.6,1.4,33.6z"/>
			<path d="M8.8,35.8c0.4-0.1,0.7-0.1,1,0.3c1.1,1.6,2.4,2.9,3.8,4.1c0.3,0.2,0.5,0.3,0.9,0.1c0.5-0.3,1-0.6,1.4-0.8
				c0.4-0.2,0.4-0.3,0.1-0.7c-0.6-0.9-1.3-1.7-1.9-2.6c-0.1-0.1-0.1-0.2-0.2-0.4c0.5-0.2,0.7-0.1,0.9,0.2c0.6,0.8,1.3,1.6,1.9,2.4
				c0.2,0.3,0.4,0.3,0.8,0.2c1-0.4,2-0.8,3-1.1c0.4-0.1,0.4-0.3,0.3-0.6c-0.2-0.4-0.4-0.8-0.5-1.1c0.6-0.2,0.7-0.2,0.9,0.3
				c0.2,0.3,0.3,0.8,0.6,1c0.2,0.1,0.7,0,1.1-0.1c1.3-0.1,2.5-0.3,3.8-0.4c0.1,0,0.3-0.2,0.3-0.3c0.1-0.1,0-0.3,0-0.4
				c0.6-0.2,0.7-0.1,0.7,0.5c0,0.1,0.2,0.3,0.3,0.3c1.6,0.2,3.1,0.4,4.7,0.6c0.1,0,0.3-0.1,0.4-0.2c0.2-0.2,0.3-0.5,0.4-0.8
				c0.2-0.4,0.4-0.6,0.9-0.4c-0.1,0.3-0.3,0.7-0.4,1c-0.3,0.6-0.3,0.6,0.4,0.8c0.9,0.3,1.9,0.7,2.8,1c0.3,0.1,0.5,0.1,0.7-0.2
				c0.6-0.8,1.2-1.5,1.7-2.3c0.3-0.4,0.6-0.5,1.1-0.4c-0.6,0.8-1.1,1.5-1.6,2.2c-0.2,0.3-0.4,0.5-0.7,0.8c-0.2,0.2-0.1,0.4,0.1,0.5
				c0.6,0.3,1.2,0.7,1.9,1c0.1,0.1,0.4,0,0.6-0.1c1.4-1.2,2.7-2.5,3.7-4c0.4-0.5,0.4-0.5,1.1-0.4c-1.3,2-2.8,3.7-4.6,5.2
				c-3.4,2.8-7.4,4.4-11.8,4.8C19.4,46.7,11.9,41,8.8,35.8z M27.7,39.8c0,0.3,0,0.5,0,0.8c0,0.3,0,0.5,0,0.8c0,0.9,0,0.9,0.9,1
				c0.2,0,0.5,0.1,0.7,0.1c0.2,0,0.5-0.1,0.6-0.2c0.9-1.3,1.7-2.5,2.5-3.8c0.2-0.4,0.2-0.5-0.2-0.5c-1.3-0.2-2.6-0.3-4-0.5
				c-0.4-0.1-0.5,0.1-0.5,0.5C27.7,38.5,27.7,39.2,27.7,39.8z M27,39.9C27,39.9,27,39.9,27,39.9c0-0.7,0-1.4,0-2.1
				c0-0.3-0.1-0.5-0.5-0.4c-1.3,0.2-2.6,0.3-4,0.5c-0.3,0-0.4,0.2-0.2,0.5c0.9,1.3,1.7,2.6,2.6,3.9c0.1,0.1,0.3,0.2,0.4,0.2
				c0.4,0,0.9-0.1,1.3-0.2c0.3,0,0.4-0.2,0.4-0.4C27,41.2,27,40.5,27,39.9z M21.2,38.2c-0.1,0-0.2,0-0.2,0c-1,0.4-2,0.7-3,1.1
				c-0.4,0.1-0.2,0.4,0,0.5c1.4,1.3,2.9,2.5,4.6,3.4c0.1,0.1,0.4,0.1,0.5,0c0.3-0.1,0.6-0.2,0.9-0.4c0.2-0.1,0.3-0.2,0.1-0.4
				c-0.9-1.3-1.7-2.7-2.6-4C21.4,38.3,21.3,38.2,21.2,38.2z M31.7,43.3c0.1,0,0.2-0.1,0.3-0.1c1.7-0.9,3.3-2.1,4.6-3.5
				c0.2-0.3,0.2-0.4-0.1-0.5c-1-0.3-1.9-0.6-2.9-1c-0.2-0.1-0.4,0-0.5,0.2c-0.4,0.7-0.8,1.4-1.3,2.1c-0.4,0.6-0.8,1.2-1.2,1.8
				c-0.1,0.1-0.1,0.4-0.1,0.5C31,43,31.3,43.2,31.7,43.3z M27.4,45.3c1.4-0.2,2.8-0.4,4.2-0.5c0.1,0,0.3-0.1,0.4-0.2
				c-0.1-0.1-0.2-0.3-0.3-0.4c-1.2-0.8-2.5-1.1-3.9-1.2c-1.7-0.1-3.4,0.3-4.9,1.2c-0.1,0.1-0.2,0.2-0.3,0.3c0.1,0.1,0.2,0.2,0.3,0.2
				C24.5,44.9,25.9,45.1,27.4,45.3z M40,41.1c-0.2-0.2-0.3-0.3-0.4-0.3c-0.4-0.3-0.9-0.5-1.3-0.8c-0.4-0.3-0.7-0.2-1,0.1
				c-0.8,0.7-1.6,1.4-2.4,2.1c-0.6,0.5-1.3,0.9-1.9,1.3c-0.1,0.1-0.2,0.3-0.2,0.4c0.2,0.2,0.4,0.4,0.7,0.3c0.6-0.2,1.2-0.4,1.9-0.6
				c1.5-0.6,2.9-1.3,4.2-2.2C39.7,41.3,39.8,41.2,40,41.1z M21.4,44.4c0.2-0.2,0.4-0.3,0.5-0.5c0,0-0.2-0.3-0.3-0.4
				c-1.6-1-3-2.1-4.3-3.4c-0.2-0.3-0.5-0.3-0.7-0.1c-0.4,0.3-0.9,0.5-1.3,0.8c-0.4,0.2-0.4,0.4,0,0.7c1.2,0.7,2.4,1.4,3.6,2
				C19.6,43.8,20.5,44,21.4,44.4z"/>
			<path d="M40.6,11.9c-0.4,0.1-0.7,0.1-1-0.3c-0.6-0.8-1.3-1.6-1.9-2.4C37.5,8.9,37.3,8.9,37,9c-1,0.4-2,0.8-3.1,1.1
				c-0.3,0.1-0.4,0.3-0.3,0.5c0.1,0.3,0.2,0.5,0.3,0.8c0.1,0.2,0.1,0.3,0.2,0.5c-0.5,0.2-0.8,0-1-0.5c-0.4-1-0.5-0.9-1.5-0.8
				c-1.2,0.2-2.4,0.3-3.6,0.4c-0.3,0-0.5,0.1-0.5,0.5c0,0.2,0,0.4-0.3,0.4c-0.3,0-0.5-0.1-0.4-0.4c0-0.3-0.1-0.5-0.5-0.5
				c-1.5-0.2-3-0.3-4.5-0.5c-0.2,0-0.4,0-0.5,0.2c-0.1,0.3-0.3,0.5-0.4,0.8c-0.2,0.5-0.5,0.5-1,0.4c0.2-0.4,0.3-0.8,0.5-1.1
				c0.2-0.5,0.2-0.5-0.3-0.7c-1-0.4-2-0.7-3-1.1C17.1,9,16.9,9,16.7,9.2c-0.6,0.8-1.3,1.6-1.9,2.4c-0.3,0.4-0.5,0.4-1,0.3
				c0.1-0.2,0.2-0.4,0.3-0.5c0.6-0.8,1.2-1.7,1.8-2.5c0.2-0.3,0.2-0.4-0.1-0.6c-0.5-0.3-1.1-0.6-1.6-0.9c-0.3-0.2-0.5-0.1-0.7,0.1
				c-1.4,1.2-2.7,2.5-3.7,3.9c-0.3,0.4-0.6,0.6-1.2,0.4c4-5.8,9.4-9.2,16.3-9.9c9.7-1,17,4.1,20.7,9.8c-0.5,0.2-0.7,0.1-1-0.3
				c-1.1-1.6-2.4-2.9-3.9-4.1c-0.3-0.2-0.5-0.2-0.8,0c-0.5,0.3-0.9,0.6-1.4,0.8c-0.5,0.3-0.5,0.4-0.2,0.8c0.7,0.9,1.3,1.8,2,2.7
				C40.5,11.7,40.5,11.8,40.6,11.9z M26.8,7.9C26.8,7.9,26.8,7.9,26.8,7.9c0-0.7,0-1.4,0-2c0-0.3-0.1-0.4-0.4-0.4
				c-0.4,0-0.8-0.1-1.3-0.1c-0.1,0-0.3,0-0.4,0.1c-0.9,1.3-1.8,2.6-2.6,3.9c-0.2,0.3-0.1,0.5,0.3,0.5c0.6,0.1,1.1,0.2,1.7,0.3
				c0.8,0.1,1.5,0.1,2.3,0.2c0.3,0,0.5-0.1,0.5-0.4C26.8,9.2,26.8,8.6,26.8,7.9z M32.3,9.8c0-0.1,0-0.2-0.1-0.2
				c-0.9-1.4-1.8-2.7-2.7-4.1c-0.1-0.1-0.3-0.1-0.4-0.1c-0.4,0-0.8,0.1-1.1,0.1c-0.3,0-0.4,0.2-0.4,0.5c0,1.3,0,2.7,0,4
				c0,0.3,0.1,0.5,0.5,0.4c0.9-0.1,1.9-0.2,2.8-0.3C31.3,10,31.8,9.9,32.3,9.8z M33.3,9.5c0.1,0,0.2-0.1,0.3-0.1
				c0.9-0.3,1.8-0.6,2.8-1c0.5-0.2,0.5-0.3,0.1-0.6c-1.2-1.1-2.5-2.1-3.8-2.9c-0.7-0.4-1.3-0.6-1.9-0.1c0,0,0,0-0.1,0
				c-0.3,0.1-0.3,0.2-0.1,0.5c0.9,1.3,1.7,2.6,2.6,4C33.1,9.4,33.2,9.5,33.3,9.5z M21,9.6c0.1-0.1,0.2-0.1,0.3-0.2
				c0.9-1.3,1.7-2.7,2.6-4C23.9,5.3,24,5.1,23.9,5c-0.2-0.3-1.2-0.5-1.5-0.3c-1.5,0.9-2.9,1.9-4.2,3.1c-0.6,0.6-0.6,0.6,0.2,0.9
				C19.2,9,20.1,9.3,21,9.6z M27.2,2.5c0,0.1,0,0.1,0,0.2c-0.5,0-0.9,0-1.4,0c-1,0.1-2,0.3-3.1,0.4c-0.1,0-0.2,0.1-0.3,0.2
				c0,0.1,0.1,0.2,0.2,0.3c0.2,0.2,0.5,0.3,0.8,0.5c1.5,0.7,3.1,0.9,4.7,0.8c1.2-0.1,2.4-0.5,3.5-1.2c0.1-0.1,0.2-0.2,0.2-0.3
				c-0.1-0.1-0.2-0.2-0.3-0.2C30.1,2.9,28.6,2.7,27.2,2.5z M21.3,3.5c-0.2,0-0.3,0-0.4,0.1c-0.8,0.3-1.6,0.5-2.3,0.9
				c-1.2,0.6-2.4,1.3-3.5,1.9c-0.5,0.3-0.4,0.4,0,0.7c0.3,0.2,0.5,0.3,0.8,0.5C16.8,8,16.8,8,17.5,7.3c0,0,0,0,0.1-0.1
				c1.3-1,2.7-2,4-3c0.1-0.1,0.2-0.3,0.2-0.4C21.7,3.7,21.4,3.6,21.3,3.5z M33.1,3.4c-0.2,0.1-0.4,0.3-0.5,0.4c0,0,0.2,0.3,0.3,0.4
				c1.6,1,3,2.1,4.3,3.4c0.3,0.3,0.5,0.3,0.8,0.1c0.4-0.3,0.9-0.5,1.3-0.8c0.4-0.2,0.4-0.4,0-0.6c-1.3-0.7-2.6-1.5-4-2.2
				C34.6,3.9,33.9,3.7,33.1,3.4z"/>
		</g>
		<text transform="matrix(1 0 0 1 14.8872 57.0278)" class="st0 st1">27001</text>
	</g>
</g>
</svg>
