<?xml version="1.0" encoding="utf-8"?>
<!-- Generator: Adobe Illustrator 25.3.1, SVG Export Plug-In . SVG Version: 6.00 Build 0)  -->
<svg version="1.1" id="Layer_1" xmlns="http://www.w3.org/2000/svg" xmlns:xlink="http://www.w3.org/1999/xlink" x="0px" y="0px"
	 width="80px" height="80px" viewBox="0 0 80 80" style="enable-background:new 0 0 80 80;" xml:space="preserve">
<style type="text/css">
	.st0{fill-rule:evenodd;clip-rule:evenodd;}
	.st1{fill:#FFFFFF;}
	.st2{stroke:#000000;stroke-width:0.25;stroke-miterlimit:10;}
	.st3{stroke:#000000;stroke-width:0.1481;stroke-miterlimit:10;}
	.st4{fill:#3F2E88;}
	.st5{fill:#3F2E88;stroke:#3F2E88;stroke-width:0.4006;stroke-miterlimit:10;}
	.st6{fill:#3F2E88;stroke:#3F2E88;stroke-width:0.3958;stroke-linecap:round;stroke-linejoin:round;stroke-miterlimit:10;}
	.st7{fill:#3F2E88;stroke:#3F2E88;stroke-width:0.2468;stroke-miterlimit:10;}
</style>
<g>
	<g>
		<circle cx="40" cy="40" r="39"/>
		<path class="st1" d="M23.64,32.74h7.55V57h-7.55V32.74z M27.42,20.68c2.42,0,4.37,1.96,4.37,4.37c0,2.41-1.96,4.38-4.37,4.38
			c-2.42,0-4.38-1.96-4.38-4.38C23.04,22.64,25,20.68,27.42,20.68"/>
		<path class="st1" d="M35.93,32.74h7.23v3.32h0.1c1.01-1.91,3.47-3.92,7.14-3.92c7.64,0,9.04,5.02,9.04,11.56V57h-7.54V45.2
			c0-2.82-0.05-6.43-3.92-6.43c-3.93,0-4.52,3.07-4.52,6.23v12h-7.54V32.74z"/>
	</g>
</g>
</svg>
