<?xml version="1.0" encoding="utf-8"?>
<!-- Generator: Adobe Illustrator 25.3.1, SVG Export Plug-In . SVG Version: 6.00 Build 0)  -->
<svg version="1.1" id="Layer_1" xmlns="http://www.w3.org/2000/svg" xmlns:xlink="http://www.w3.org/1999/xlink" x="0px" y="0px"
	 width="40px" height="40px" viewBox="0 0 40 40" style="enable-background:new 0 0 40 40;" xml:space="preserve">
<style type="text/css">
	.st0{fill-rule:evenodd;clip-rule:evenodd;}
	.st1{fill:#FFFFFF;}
	.st2{stroke:#000000;stroke-width:0.25;stroke-miterlimit:10;}
	.st3{stroke:#000000;stroke-width:0.1481;stroke-miterlimit:10;}
	.st4{fill:#3F2E88;}
	.st5{fill:#3F2E88;stroke:#3F2E88;stroke-width:0.4006;stroke-miterlimit:10;}
	.st6{fill:#3F2E88;stroke:#3F2E88;stroke-width:0.3958;stroke-linecap:round;stroke-linejoin:round;stroke-miterlimit:10;}
	.st7{fill:#3F2E88;stroke:#3F2E88;stroke-width:0.2468;stroke-miterlimit:10;}
</style>
<g>
	<path class="st7" d="M37.13,12.52c2.27-4.73,2.48-8.37,0.6-10.25c-1.45-1.46-3.92-1.67-7.16-0.63l0.52,1.61
		c2.55-0.82,4.48-0.74,5.45,0.22c1.24,1.24,0.94,4.15-0.77,7.91h0c-1.55-2.83-3.83-5.19-6.6-6.84s-5.94-2.52-9.17-2.52v1.69
		c3.13,0.01,6.19,0.91,8.82,2.61c2.63,1.7,4.71,4.12,6,6.97c-2.55,4.47-5.71,8.56-9.39,12.14c-3.59,3.68-7.67,6.84-12.12,9.4
		c-3.69-1.66-6.63-4.65-8.25-8.36s-1.78-7.9-0.47-11.73l-1.6-0.55C1.61,18.2,1.7,22.57,3.24,26.52c1.54,3.95,4.43,7.23,8.15,9.26
		c-3.77,1.73-6.65,2.02-7.92,0.74c-1.21-1.21-0.8-3.62-0.23-5.44l-1.62-0.5c-1.27,4.09-0.34,6.14,0.65,7.14
		c0.97,0.89,2.25,1.35,3.57,1.27c2.33-0.13,4.61-0.77,6.68-1.86c0.28-0.13,0.57-0.29,0.85-0.44v0c4.37,1.75,9.25,1.71,13.59-0.11
		c4.34-1.82,7.79-5.27,9.61-9.61s1.86-9.22,0.12-13.59C36.83,13.09,36.99,12.8,37.13,12.52L37.13,12.52z M36.27,20
		c0,3.4-1.05,6.71-3.03,9.47c-1.97,2.76-4.76,4.84-7.97,5.94c-3.21,1.1-6.69,1.17-9.94,0.19c4.11-2.52,7.89-5.53,11.28-8.97
		c3.44-3.38,6.45-7.17,8.98-11.28C36.04,16.86,36.27,18.43,36.27,20L36.27,20z"/>
	<path class="st7" d="M10.89,19.4l2.99,4.24l2.98-4.22c2.5-0.94,4.41-2.99,5.16-5.55c0.75-2.56,0.25-5.32-1.35-7.46
		C19.09,4.26,16.58,3,13.91,3c-2.67,0-5.18,1.25-6.79,3.38c-1.6,2.13-2.11,4.89-1.37,7.46C6.49,16.4,8.4,18.46,10.89,19.4
		L10.89,19.4z M13.89,4.72c2.16-0.01,4.2,1.01,5.48,2.76c1.28,1.74,1.65,3.99,1,6.06c-0.65,2.06-2.26,3.69-4.31,4.37L15.8,18
		l-1.92,2.7l-1.92-2.72l-0.26-0.09c-2.04-0.69-3.63-2.32-4.28-4.38c-0.65-2.06-0.27-4.3,1-6.04C9.69,5.74,11.72,4.72,13.89,4.72
		L13.89,4.72z"/>
	<path class="st7" d="M16.37,9c-0.66-0.66-1.56-1.03-2.49-1.03c-0.93,0-1.83,0.37-2.49,1.03c-0.66,0.66-1.03,1.56-1.03,2.49
		c0,0.93,0.37,1.83,1.03,2.49c0.66,0.66,1.56,1.03,2.49,1.03v0c0.93,0,1.83-0.37,2.49-1.03c0.66-0.66,1.03-1.56,1.03-2.49
		C17.4,10.56,17.03,9.66,16.37,9z M15.26,12.87c-0.37,0.37-0.86,0.57-1.38,0.57c-0.52,0-1.01-0.21-1.38-0.57
		c-0.37-0.37-0.57-0.86-0.57-1.38c0-0.52,0.21-1.02,0.57-1.38c0.37-0.37,0.86-0.57,1.38-0.57c0.52,0,1.01,0.21,1.38,0.57
		c0.37,0.37,0.57,0.86,0.57,1.38C15.83,12.01,15.63,12.5,15.26,12.87z"/>
</g>
</svg>
