<?xml version="1.0" encoding="utf-8"?>
<!-- Generator: Adobe Illustrator 25.3.1, SVG Export Plug-In . SVG Version: 6.00 Build 0)  -->
<svg version="1.1" id="Layer_1" xmlns="http://www.w3.org/2000/svg" xmlns:xlink="http://www.w3.org/1999/xlink" x="0px" y="0px"
	 width="40px" height="40px" viewBox="0 0 40 40" style="enable-background:new 0 0 40 40;" xml:space="preserve">
<style type="text/css">
	.st0{fill-rule:evenodd;clip-rule:evenodd;}
	.st1{fill:#FFFFFF;}
	.st2{stroke:#000000;stroke-width:0.25;stroke-miterlimit:10;}
	.st3{stroke:#000000;stroke-width:0.1481;stroke-miterlimit:10;}
	.st4{fill:#3F2E88;}
	.st5{fill:#3F2E88;stroke:#3F2E88;stroke-width:0.4006;stroke-miterlimit:10;}
	.st6{fill:#3F2E88;stroke:#3F2E88;stroke-width:0.3958;stroke-linecap:round;stroke-linejoin:round;stroke-miterlimit:10;}
	.st7{fill:#3F2E88;stroke:#3F2E88;stroke-width:0.2468;stroke-miterlimit:10;}
</style>
<g>
	<path class="st4" d="M38.65,9.76C35.39,6.47,31.3,4.1,26.83,2.9C24.6,2.3,22.3,2,20,2c-2.3,0-4.6,0.3-6.83,0.9
		C8.7,4.1,4.62,6.47,1.35,9.76C1.13,9.98,1,10.29,1,10.61c0,0.32,0.13,0.62,0.35,0.85c0.46,0.48,1.29,0.48,1.74,0.01
		c2.96-2.97,6.67-5.11,10.72-6.2c4.05-1.08,8.33-1.08,12.38,0c4.05,1.09,7.76,3.23,10.72,6.2c0.22,0.22,0.52,0.34,0.84,0.34h0.06
		c0,0,0,0,0.01,0c0.31,0,0.62-0.13,0.85-0.35c0.22-0.22,0.35-0.53,0.35-0.85C39,10.29,38.87,9.98,38.65,9.76z"/>
	<path class="st4" d="M29.71,17.44c0,0.32,0.12,0.62,0.35,0.85c0.23,0.23,0.53,0.35,0.84,0.35c0,0,0,0,0.01,0
		c0.32,0,0.62-0.12,0.84-0.35l6.83-6.83c0.23-0.23,0.35-0.53,0.35-0.85c0-0.32-0.13-0.63-0.35-0.85c-0.45-0.45-1.24-0.45-1.68,0
		l-6.84,6.83C29.84,16.82,29.71,17.12,29.71,17.44z"/>
	<path class="st4" d="M16.31,14.59c2.41-0.65,4.96-0.65,7.38,0c2.41,0.65,4.62,1.93,6.38,3.7c0.22,0.22,0.52,0.34,0.83,0.34
		c0,0,0,0,0.01,0c0.32,0,0.62-0.12,0.84-0.35c0.23-0.23,0.35-0.53,0.35-0.85c0-0.32-0.13-0.63-0.35-0.85
		c-2.06-2.06-4.64-3.55-7.45-4.31c-1.41-0.38-2.85-0.57-4.3-0.57c-1.45,0-2.9,0.19-4.3,0.57c-2.82,0.75-5.39,2.24-7.45,4.31
		c-0.22,0.22-0.35,0.53-0.35,0.85c0,0.32,0.12,0.62,0.35,0.85c0.45,0.45,1.23,0.44,1.69,0C11.69,16.52,13.89,15.24,16.31,14.59z"/>
	<path class="st4" d="M25.28,24.25c0-0.31-0.13-0.62-0.35-0.84c-1.32-1.31-3.07-2.04-4.93-2.04s-3.61,0.72-4.93,2.04
		c-0.27,0.23-0.42,0.54-0.43,0.87c-0.01,0.33,0.11,0.66,0.35,0.89c0.24,0.24,0.57,0.35,0.89,0.35c0.33-0.01,0.65-0.16,0.86-0.42
		c0.9-0.85,2.05-1.3,3.26-1.3c1.21,0,2.36,0.46,3.24,1.28c0.23,0.23,0.54,0.36,0.85,0.36c0.32,0,0.61-0.13,0.83-0.36
		C25.15,24.88,25.28,24.57,25.28,24.25z"/>
	<path class="st4" d="M16.75,23.41l-6.82-6.82c-0.22-0.22-0.53-0.35-0.84-0.35c-0.31,0-0.62,0.13-0.84,0.35
		c-0.23,0.23-0.35,0.53-0.35,0.85c0,0.32,0.13,0.63,0.35,0.85l6.82,6.81c0.22,0.23,0.52,0.36,0.84,0.36c0.32,0,0.62-0.13,0.85-0.36
		c0.22-0.22,0.35-0.53,0.35-0.84C17.1,23.94,16.97,23.63,16.75,23.41z"/>
	<path class="st4" d="M20,30.27c-2.14,0-3.87,1.73-3.87,3.87c0,2.14,1.73,3.87,3.87,3.87s3.87-1.73,3.87-3.87
		C23.86,32,22.13,30.27,20,30.27z M20,36.47c-1.29,0-2.33-1.04-2.33-2.33c0-1.29,1.04-2.33,2.33-2.33s2.33,1.04,2.33,2.33
		C22.33,35.42,21.29,36.47,20,36.47z"/>
</g>
</svg>
