<?xml version="1.0" encoding="utf-8"?>
<!-- Generator: Adobe Illustrator 25.3.1, SVG Export Plug-In . SVG Version: 6.00 Build 0)  -->
<svg version="1.1" id="Layer_1" xmlns="http://www.w3.org/2000/svg" xmlns:xlink="http://www.w3.org/1999/xlink" x="0px" y="0px"
	 width="80px" height="80px" viewBox="0 0 80 80" style="enable-background:new 0 0 80 80;" xml:space="preserve">
<style type="text/css">
	.st0{fill-rule:evenodd;clip-rule:evenodd;}
	.st1{fill:#FFFFFF;}
	.st2{stroke:#000000;stroke-width:0.25;stroke-miterlimit:10;}
	.st3{stroke:#000000;stroke-width:0.1481;stroke-miterlimit:10;}
	.st4{fill:#3F2E88;}
	.st5{fill:#3F2E88;stroke:#3F2E88;stroke-width:0.4006;stroke-miterlimit:10;}
	.st6{fill:#3F2E88;stroke:#3F2E88;stroke-width:0.3958;stroke-linecap:round;stroke-linejoin:round;stroke-miterlimit:10;}
	.st7{fill:#3F2E88;stroke:#3F2E88;stroke-width:0.2468;stroke-miterlimit:10;}
</style>
<g>
	<g>
		<g>
			<circle cx="40" cy="40" r="39"/>
		</g>
		<path class="st1" d="M60.88,34.33c0-5.17-4.19-9.37-9.37-9.37H27.57c-5.17,0-9.37,4.19-9.37,9.37v11.14
			c0,5.17,4.19,9.37,9.37,9.37h23.95c5.17,0,9.37-4.19,9.37-9.37V34.33z M46.8,40.74l-10.74,5.31c-0.42,0.23-1.85-0.08-1.85-0.56
			V34.59c0-0.48,1.44-0.79,1.86-0.55l10.28,5.59C46.78,39.88,47.23,40.5,46.8,40.74z"/>
	</g>
</g>
</svg>
